<?xml version="1.0" encoding="UTF-8" standalone="no"?>
<svg xmlns:inkscape="http://www.inkscape.org/namespaces/inkscape" xmlns:sodipodi="http://sodipodi.sourceforge.net/DTD/sodipodi-0.dtd" xmlns="http://www.w3.org/2000/svg" xmlns:svg="http://www.w3.org/2000/svg" version="1.1" id="svg2" width="84.5532" height="115.60533" viewBox="0 0 84.5532 115.60533" sodipodi:docname="Lemma_Legal_Just_Llama.svg" inkscape:version="1.2.2 (732a01da63, 2022-12-09)">
  <defs id="defs6">
    <clipPath id="clipPath26">
      <path d="M 0,500 H 500 V 0 H 0 Z" id="path24"></path>
    </clipPath>
  </defs>
  <g id="g10" inkscape:groupmode="layer" inkscape:label="Page 1" transform="matrix(1.3333333,0,0,-1.3333333,-290.16173,307.82946)">
    <g id="g20">
      <g id="g22" clip-path="url(#clipPath26)">
        <g id="g64" transform="translate(237.4193,201.654)">
          <path d="m 0,0 c -0.984,-3.277 -7.17,-7.026 -10.825,-8.245 0,0 11.996,2.344 14.34,5.249 2.343,2.905 0,5.155 0,5.155 z" style="fill:#88aaff;fill-opacity:1;fill-rule:nonzero;stroke:none" id="path66"></path>
        </g>
        <g id="g68" transform="translate(263.1579,201.0002)">
          <path d="m 0,0 c 0.984,-3.277 7.117,-7.349 10.772,-8.567 0,0 -11.997,2.343 -14.34,5.248 -2.343,2.905 0,5.155 0,5.155 z" style="fill:#88aaff;fill-opacity:1;fill-rule:nonzero;stroke:none" id="path70"></path>
        </g>
        <g id="g72" transform="translate(237.0712,203.0642)">
          <path d="m 0,0 c 0,0 0.076,-2.251 0.763,-3.204 0,0 -0.801,-7.782 5.646,-9.003 0,0 1.974,-5.493 6.804,-5.264 4.487,-0.007 6.242,4.082 6.928,5.34 0,0 5.837,0.725 5.455,8.889 0,0 0.992,1.525 0.84,3.433 C 26.436,0.191 13.733,14.343 0,0" style="fill:#4422ee;fill-opacity:1;fill-rule:nonzero;stroke:none" id="path74"></path>
        </g>
        <g id="g76" transform="translate(246.5768,200.6157)">
          <path d="m 0,0 c 0,0 1.297,-9.414 -1.896,-15.669 l -1.347,-0.499 h 1.147 l -1.846,-1.497 1.597,0.749 c 0,0 -7.136,-7.036 -7.136,-11.627 0,0 1.065,1.797 1.065,0 l -1.797,-2.162 1.464,0.632 c 0,0 -0.033,-3.227 -1.131,-4.325 l 0.832,0.133 0.066,-4.624 c 0,0 0.133,2.129 0.965,2.296 l 0.732,-3.959 c 0,0 0.465,-0.832 0.366,1.53 0,0 1.791,-1.33 1.943,-4.091 l 0.984,1.746 c 0,0 0.499,-2.811 2.063,-3.842 0,0 0.499,1.364 0.332,2.262 0,0 1.131,-3.959 2.795,-5.722 0,0 -0.433,3.36 0.199,2.928 0,0 1.797,-3.593 1.53,-6.421 0,0 1.065,2.961 1.265,5.057 0,0 0.865,0.532 0.931,-3.959 0,0 1.697,4.89 2.894,5.822 l 0.366,-0.699 2.745,3.826 c 0,0 0.698,1.846 0.798,-0.275 0,0 2.969,5.389 3.019,3.119 0,0 0.05,4.715 0.773,2.67 l 0.325,-1.497 0.324,4.84 1.023,-0.724 c 0,0 -1.123,1.073 -1.447,4.94 l 1.447,-0.898 c 0,0 -2.47,3.443 -1.347,3.044 l 0.773,-0.624 c 0,0 -1.087,2.964 -3.095,5.465 -0.958,1.194 -1.757,2.505 -2.434,3.877 -0.855,1.735 -1.851,3.85 -2.139,4.838 l 0.599,0.1 -1.464,1.73 c 0,0 -0.499,1.231 1.098,0.332 l -1.031,1.165 -0.1,0.565 0.466,-0.166 c 0,0 -1.697,3.06 -0.366,9.614 z" style="fill:#4422ee;fill-opacity:1;fill-rule:nonzero;stroke:none" id="path78"></path>
        </g>
        <g id="g80" transform="translate(246.379,190.0944)">
          <path d="m 0,0 c 0,0 2.155,-1.926 3.395,-0.172 1.24,1.755 -1.621,4.025 -2.537,4.349 0,0 -1.201,0.658 -0.772,1.488 0,0 0.057,-0.859 1.073,-0.515 0,0 1.065,0.565 1.144,-0.401 0,0 0.494,-1.967 1.667,-1.881 0,0 0.999,-0.112 1.542,1.862 0,0 0.017,0.806 0.789,0.527 0.773,-0.279 1.13,-0.286 1.438,0.408 0,0 0.179,-0.344 -0.136,-0.959 C 7.288,4.091 4.764,3.247 4.234,1.502 3.705,-0.243 5.05,-1.016 6.022,-0.815 c 0.973,0.2 1.585,0.51 1.768,0.853 0.183,0.343 -0.38,-3.319 -4.5,-2.87 0,0 -2.508,0.124 -3.29,2.832" style="fill:#ed1e79;fill-opacity:1;fill-rule:nonzero;stroke:none" id="path82"></path>
        </g>
        <g id="g84" transform="translate(260.0692,177.9832)">
          <path d="M 0,0 C -1.741,0.344 -2.888,-0.117 -3.64,-0.788 -5.338,-2.317 -7.581,-3.081 -9.864,-3.04 l -0.181,0.004 c -2.342,0.092 -4.592,1.037 -6.21,2.731 -0.698,0.725 -1.811,1.277 -3.573,1.068 -2.667,-0.318 -7.809,-0.881 -11.125,-0.432 -0.858,0.115 -1.589,0.298 -2.131,0.576 -0.782,0.387 -1.16,0.969 -0.904,1.802 0,0 0.646,-0.319 1.876,-0.434 0.044,-10e-4 0.088,-0.007 0.132,-0.008 1.514,-0.115 3.868,0.093 6.961,1.521 5.777,2.665 10.865,1.762 13.403,-0.821 0,0 0.642,-0.493 0.936,0.312 l 0.039,0.919 c 0,0 -1.07,2.276 -0.797,3.427 0.135,0.57 0.36,2.302 0.653,4.214 0.189,1.232 1.955,1.261 2.18,0.035 C -8.24,9.891 -7.931,8.08 -7.837,7.488 -7.656,6.318 -8.89,4.133 -8.89,4.133 L -8.928,3.214 C -8.692,2.388 -8.015,2.83 -8.015,2.83 -5.288,5.212 -0.147,5.726 5.415,2.623 10.972,-0.48 14.271,0.861 14.271,0.861 15.102,-2.856 4.306,-0.846 0,0" style="fill:#88aaff;fill-opacity:1;fill-rule:nonzero;stroke:none" id="path86"></path>
        </g>
        <g id="g88" transform="translate(218.2331,154.8425)">
          <path d="M 0,0 C 6.222,-0.114 12.302,-0.225 18.42,-0.337 16.627,-4.606 2.518,-4.704 0,0" style="fill:#88aaff;fill-opacity:1;fill-rule:nonzero;stroke:none" id="path90"></path>
        </g>
        <g id="g92" transform="translate(236.6093,157.4591)">
          <path d="m 0,0 c -0.149,-0.047 -0.303,-0.088 -0.452,-0.134 -2.529,6.903 -5.059,13.812 -7.594,20.72 -0.115,-0.003 -0.23,-0.007 -0.351,-0.01 L -8.77,0.199 c -0.148,0.003 -0.301,0.005 -0.454,0.014 l 0.374,20.415 c -0.137,0.036 -0.268,0.065 -0.398,0.101 -2.798,-6.844 -5.596,-13.688 -8.394,-20.532 -0.125,0.041 -0.245,0.081 -0.365,0.122 0.038,0.267 0.021,0.563 0.119,0.803 2.742,6.779 5.489,13.547 8.264,20.309 0.063,0.152 0.126,0.31 0.189,0.462 0.143,0.354 0.498,0.61 0.783,0.906 0.044,-0.001 0.088,-0.007 0.131,-0.008 0.225,-0.278 0.511,-0.535 0.631,-0.855 0.13,-0.358 0.266,-0.722 0.396,-1.081 C -5.041,14.195 -2.611,7.529 -0.176,0.863 -0.077,0.587 -0.055,0.291 0,0" style="fill:#88aaff;fill-opacity:1;fill-rule:nonzero;stroke:none" id="path94"></path>
        </g>
        <g id="g96" transform="translate(217.6213,155.5584)">
          <path d="M 0,0 C 0.011,0.582 0.019,1.045 0.03,1.613 6.602,1.493 13.122,1.374 19.767,1.252 19.783,0.729 19.799,0.231 19.818,-0.363 13.196,-0.242 6.671,-0.122 0,0" style="fill:#88aaff;fill-opacity:1;fill-rule:nonzero;stroke:none" id="path98"></path>
        </g>
        <g id="g100" transform="translate(262.0481,153.1663)">
          <path d="M 0,0 C 6.062,-0.111 12.123,-0.222 18.486,-0.338 16.07,-3.296 12.851,-3.502 9.734,-3.562 6.13,-3.632 2.541,-3.255 0,0" style="fill:#88aaff;fill-opacity:1;fill-rule:nonzero;stroke:none" id="path102"></path>
        </g>
        <g id="g104" transform="translate(262.0403,156.1428)">
          <path d="m 0,0 c 0.767,1.912 1.529,3.826 2.303,5.735 2.064,5.088 4.122,10.177 6.213,15.253 0.223,0.541 0.648,0.999 0.979,1.495 0.347,-0.523 0.811,-1.004 1.023,-1.578 2.468,-6.671 4.901,-13.356 7.334,-20.041 0.146,-0.399 0.222,-0.823 0.33,-1.235 -0.154,-0.05 -0.308,-0.1 -0.462,-0.15 C 15.184,6.402 12.648,13.326 10.112,20.25 10.007,20.243 9.902,20.236 9.796,20.229 9.672,13.418 9.547,6.607 9.422,-0.203 9.262,-0.202 9.102,-0.2 8.942,-0.199 9.066,6.582 9.19,13.362 9.314,20.143 9.172,20.169 9.03,20.196 8.888,20.223 6.098,13.41 3.309,6.597 0.519,-0.216 0.346,-0.144 0.173,-0.072 0,0" style="fill:#88aaff;fill-opacity:1;fill-rule:nonzero;stroke:none" id="path106"></path>
        </g>
        <g id="g108" transform="translate(281.0362,155.114)">
          <path d="m 0,0 c -0.01,-0.554 -0.019,-1.049 -0.03,-1.632 -6.57,0.12 -13.094,0.24 -19.703,0.361 0.01,0.548 0.019,1.044 0.03,1.632 C -13.133,0.24 -6.609,0.121 0,0" style="fill:#88aaff;fill-opacity:1;fill-rule:nonzero;stroke:none" id="path110"></path>
        </g>
        <g id="g112" transform="translate(250.297,201.2236)">
          <path d="m 0,0 c 0,0 -1.286,-0.143 -1.715,-1.974 0,0 -1.879,-1.669 -2.451,-1.755 -0.572,-0.086 -2.155,-1.602 -1.259,-4.94 0.897,-3.338 4.38,-4.341 5.089,-2.294 0.709,2.046 -2.318,3.803 -2.969,4.174 -0.651,0.371 -0.661,1.153 -0.527,1.325 0,0 0.228,-1.038 1.306,-0.419 0,0 0.693,0.341 0.878,-0.307 0.185,-0.648 0.614,-2.62 2.1,-1.977 0,0 0.89,0.262 1.188,2.007 0,0 0.169,0.567 0.743,0.288 0.575,-0.279 1.309,-0.308 1.438,0.408 0,0 0.457,-0.724 -1.438,-1.936 -1.895,-1.212 -2.485,-2.384 -1.999,-3.762 0.485,-1.379 2.809,-0.806 3.488,0.071 0,0 2.939,2.594 1.251,6.428 0,0 -3.519,2.46 -3.519,2.975 0,0 -0.261,1.774 -1.604,1.688" style="fill:#7788ee;fill-opacity:1;fill-rule:nonzero;stroke:none" id="path114"></path>
        </g>
        <g id="g116" transform="translate(240.6794,204.3161)">
          <path d="m 0,0 c 0,0 -9.667,7.051 -5.345,22.405 l 0.91,-2.104 c 0,0 2.9,5.914 3.753,6.255 0,0 0.398,-5.459 2.104,-7.563 1.706,-2.104 0.796,-7.961 2.502,-12.624 z" style="fill:#4422ee;fill-opacity:1;fill-rule:nonzero;stroke:none" id="path118"></path>
        </g>
        <g id="g120" transform="translate(238.6891,211.4242)">
          <path d="m 0,0 h -0.91 c 0,0 0.455,-2.843 3.355,-4.322 0,0 1.308,2.843 2.161,2.844 0,0 -2.218,1.421 -2.275,6.368 L 1.535,4.151 0.341,12.169 C 0.341,12.169 -2.445,4.89 0,0" style="fill:#88aaff;fill-opacity:1;fill-rule:nonzero;stroke:none" id="path122"></path>
        </g>
        <g id="g124" transform="translate(259.8447,204.3161)">
          <path d="m 0,0 c 0,0 9.667,7.051 5.345,22.405 l -0.91,-2.104 c 0,0 -2.9,5.914 -3.753,6.255 0,0 -0.398,-5.459 -2.104,-7.563 -1.706,-2.104 -0.796,-7.961 -2.502,-12.624 z" style="fill:#4422ee;fill-opacity:1;fill-rule:nonzero;stroke:none" id="path126"></path>
        </g>
        <g id="g128" transform="translate(261.835,211.4242)">
          <path d="m 0,0 h 0.91 c 0,0 -0.455,-2.843 -3.355,-4.322 0,0 -1.308,2.843 -2.161,2.844 0,0 2.218,1.421 2.275,6.368 l 0.796,-0.739 1.194,8.018 C -0.341,12.169 2.445,4.89 0,0" style="fill:#88aaff;fill-opacity:1;fill-rule:nonzero;stroke:none" id="path130"></path>
        </g>
        <g id="g132" transform="translate(241.3991,202.4963)">
          <path d="m 0,0 c 0,0 -1.125,-1.774 -2.537,-1.812 0,0 1.107,1.526 0,1.488 l -1.182,-1.259 c 0,0 -0.763,0.572 -0.115,1.697 0,0 0.038,0.63 -2.231,0 0,0 -0.191,1.641 1.564,1.603 0,0 0.114,0.801 -1.908,1.144 0,0 0.477,1.087 2.06,0.877 0,0 -0.534,1.984 0.382,3.338 0,0 0.591,0.878 2.25,-1.468 l 0.325,-0.039 c 0,0 0.82,3.968 2.002,5.055 0,0 0.82,-2.499 1.641,-2.003 0.82,0.496 0.767,3.324 0.538,3.781 -0.228,0.458 2.146,-0.615 3.462,-2.26 0,0 -0.272,4.707 2.733,7.11 0,0 3.347,-3.634 2.632,-7.01 0,0 2.718,2.604 3.576,2.146 0,0 -0.754,-3.805 0.715,-3.843 0,0 0.782,-0.019 1.431,2.174 0,0 2.021,-3.052 1.926,-5.169 l 0.439,0.058 0.114,1.01 2.117,0.496 c 0,0 0.897,-2.136 0.382,-3.337 0,0 1.917,-0.029 1.888,-0.916 0,0 -1.774,-0.429 -1.774,-1.087 0,0 1.86,-0.172 1.659,-1.717 0,0 -2.403,0.687 -2.403,0 0,0 0.773,-0.486 0.086,-1.688 0,0 -1.03,2.003 -1.745,1.259 0,0 0.072,-0.832 0.37,-1.316 0.027,-0.045 0.056,-0.086 0.088,-0.124 0.372,-0.448 -2.06,0.267 -2.556,1.831 0,0 -0.858,-0.687 -1.564,-0.515 0,0 0.591,2.041 -1.183,1.946 0,0 -1.239,-0.687 -0.992,-1.069 0,0 -1.106,0.058 -1.335,1.355 0,0 -0.095,-1.755 -0.629,-2.079 0,0 0.019,2.098 -1.431,3.07 0,0 -0.534,-1.621 -0.324,-2.098 0,0 -1.163,1.088 -1.487,2.671 0,0 -0.287,-1.793 -1.507,-2.652 0,0 0.21,1.202 -0.401,1.965 0,0 -1.43,-1.049 -1.24,-2.975 0,0 -0.877,0.381 -0.839,2.098 0,0 0.153,-0.935 -1.278,-1.355 0,0 -0.667,1.412 -1.526,0.973 0,0 -1.068,-0.419 -0.61,-1.774 0,0 -1.354,0.077 -1.583,0.42" style="fill:#7788ee;fill-opacity:1;fill-rule:nonzero;stroke:none" id="path134"></path>
        </g>
        <g id="g136" transform="translate(258.8127,155.2073)">
          <path d="m 0,0 c 0.992,0.938 1.347,2.233 1.933,3.399 0.199,0.394 0.48,0.756 0.626,1.167 1.417,3.995 2.025,8.114 1.801,12.349 -0.037,0.699 -0.152,1.394 -0.242,2.197 -8.042,-9.029 -17.501,-8.67 -25.194,-0.177 -0.057,-0.379 -0.105,-0.645 -0.136,-0.913 -0.293,-2.543 -0.221,-5.08 0.168,-7.606 0.492,-3.201 1.152,-6.42 3.092,-9.042 1.116,-1.509 1.392,-2.964 1.282,-4.666 -0.011,-0.174 -0.015,-0.352 0.008,-0.524 0.06,-0.444 -0.179,-0.675 -0.477,-0.987 -0.604,-0.633 -1.355,-1.323 -1.543,-2.109 -0.316,-1.323 -0.24,-2.739 -0.328,-4.118 h 8.233 c 0,1.134 0.132,2.226 -0.043,3.266 -0.137,0.819 -0.449,1.841 -1.047,2.3 -1.064,0.815 -1.077,1.773 -1.032,2.871 0.026,0.622 -0.015,1.248 0.014,1.87 0.011,0.23 0.073,0.513 0.219,0.673 1.575,1.721 2.438,3.813 3.099,5.994 0.413,1.364 0.703,2.764 1.055,4.172 0.039,-0.048 0.087,-0.081 0.097,-0.123 0.034,-0.145 0.053,-0.294 0.081,-0.44 0.57,-3.033 1.234,-6.102 3.204,-8.524 1.145,-1.409 1.401,-2.787 1.283,-4.417 -0.013,-0.174 0.046,-0.368 -0.014,-0.519 -0.125,-0.315 -0.233,-0.702 -0.478,-0.891 -0.826,-0.639 -1.491,-1.422 -1.597,-2.44 -0.129,-1.247 -0.031,-2.518 -0.031,-3.801 h 8.079 c 0,0.926 -0.007,1.794 10e-4,2.662 0.015,1.532 -0.576,2.751 -1.824,3.657 -0.173,0.126 -0.365,0.368 -0.37,0.56 -0.032,1.272 -0.019,2.544 -0.012,3.816 C -0.092,-0.227 -0.074,-0.07 0,0" style="fill:#4422ee;fill-opacity:1;fill-rule:nonzero;stroke:none" id="path138"></path>
        </g>
        <g id="g140" transform="translate(252.8461,144.1681)">
          <path d="M 0,0 H 21.504 L 0,1.567 Z" style="fill:#4422ee;fill-opacity:1;fill-rule:nonzero;stroke:none" id="path142"></path>
        </g>
        <g id="g144" transform="translate(248.0298,144.1681)">
          <path d="M 0,0 H -21.504 L 0,1.567 Z" style="fill:#4422ee;fill-opacity:1;fill-rule:nonzero;stroke:none" id="path146"></path>
        </g>
      </g>
    </g>
  </g>
</svg>
